<?xml version="1.0" encoding="utf-8"?>
<!-- Generator: Adobe Illustrator 23.1.0, SVG Export Plug-In . SVG Version: 6.00 Build 0)  -->
<svg version="1.1" xmlns="http://www.w3.org/2000/svg" xmlns:xlink="http://www.w3.org/1999/xlink" x="0px" y="0px"
	 viewBox="0 0 981.4 172.8" style="enable-background:new 0 0 981.4 172.8;" xml:space="preserve">
<style type="text/css">
	.st0{display:none;}
	.st1{fill:#FFFFFF;}
</style>
<g id="Layer_1_copy_xA0_Image_1_" class="st0">
	<g>
		<path class="st1" d="M347.4,172.8c-115.7,0-231.4,0-347.2,0c0-57.6,0-115.2,0-172.8C229,0,457.7,0,686.4,0c0,57.6,0,115.2,0,172.8
			c-104.2,0-208.4,0-312.6,0c0.2-0.1,0.4-0.2,0.7-0.2c6.3-1.2,12.4-3,18.3-5.7c33.7-15.4,51.9-51.4,44.2-87.6
			C433,60.8,423.6,45.4,408.5,34c-23.2-17.5-48.8-21.3-76-11.3c-35.7,13.1-56.7,51.9-48.3,89.2c6.5,28.6,24,47.8,51.5,57.8
			C339.5,171.1,343.5,171.8,347.4,172.8z M103.1,100.7c0,5.8,0.2,11.4-0.8,17c-2,11.3-8.1,19.4-18.8,23.6
			c-8.7,3.4-17.7,3.7-26.7,1.5c-9.5-2.4-16.3-8.2-20-17.4c-1.9-4.7-2.9-9.7-3.1-14.7c-0.3-7.8-0.4-15.6-0.5-23.4
			c-0.1-6.4,0.1-12.8,0.2-19.2c0.1-5.7,0.4-11.3,1.8-16.9c2.6-10.1,8.4-17.3,18.3-20.9c6.3-2.3,12.8-2.5,19.4-1.9
			c9,0.8,16.3,4.7,22,11.8c2.2,2.8,3.9,5.8,5.1,9.2c1.2,3.1,2.6,4,5.9,4c4.3,0,8.6,0,13,0c3.3,0,6.6,0,9.8,0c3.6,0,5.6-1.9,5.4-5.5
			c-0.1-2.3-0.5-4.6-1.1-6.7c-2.8-10.1-8.5-18.3-16.6-24.8C106.1,8,94.2,3.1,81,1.4C68.4-0.2,55.9,0.1,43.7,3.6
			C24.4,9.1,11.3,21.3,4.6,40.4c-3.1,8.9-4,18.2-4.1,27.6C0.4,78.1,0.4,88.2,0.4,98.3c0,7.4,0.2,14.8,1.5,22.1
			c1.2,6.9,3.2,13.5,6.4,19.8c7.8,15.1,20.1,24.5,36.4,28.8c8.3,2.2,16.8,2.9,25.4,2.7c8.1-0.2,16.1-1.3,23.8-3.9
			c9.9-3.2,18.6-8.4,25.6-16c10-10.8,14.9-23.9,15.6-38.4c0.5-10.4,0.3-20.9,0.3-31.3c0-3.8-2.4-6-6.1-6c-17.7,0-35.4,0-53.1,0
			c-3.8,0-6,2.2-6.1,6c0,4.1,0,8.2,0,12.4c0,4,2.2,6.2,6.2,6.2c8.4,0,16.8,0,25.2,0C102.1,100.7,102.5,100.7,103.1,100.7z
			 M184,116.8c0.8,0,1.3,0,1.8,0c24.2,0,48.3,0,72.5,0c0.4,0,0.8,0,1.2,0c2.9-0.1,5.2-2.4,5.1-5.3c0-4.6,0-9.3-0.3-13.9
			c-0.7-9.7-3-18.9-7.6-27.5c-6.7-12.3-16.5-20.8-30.2-24.5c-9.7-2.6-19.6-2.9-29.5-1.3c-13.3,2.2-24,8.6-32,19.5
			c-6.9,9.4-10.2,20.2-11.5,31.6c-0.7,6.1-0.7,12.2-0.4,18.3c0.4,8.2,1.4,16.3,4.3,24.1c5.3,14.8,15.1,25.2,30,30.6
			c7.4,2.7,15.1,3.5,23,3.4c10.1-0.2,19.7-2.1,28.6-6.8c7.8-4.1,14.7-9.3,19.5-16.9c1.5-2.5,2.7-5.1,3-8c0.3-3.1-1.4-5.3-4.5-5.4
			c-7.3-0.1-14.6,0-21.8,0c-1.6,0-2.9,0.6-4,1.9c-0.9,1.1-1.8,2.2-2.7,3.3c-5.6,6.8-12.7,10-21.5,9.5c-6.6-0.4-12-3.2-16-8.5
			c-4.1-5.5-6.1-11.8-6.8-18.6C184.1,120.5,184.1,118.7,184,116.8z M656,154c0,0.6,0,1,0,1.5c0,2.9-0.1,5.8,0.1,8.6
			c0.2,3,2.5,4.9,5.5,4.9c6,0,12,0,18,0c4,0,6.1-2,6.1-6c0-37.2,0-74.4,0-111.6c0-4.2-1.9-6.1-6.1-6.1c-6.2,0-12.5,0-18.7,0
			c-4.1,0-6.2,2.1-6.2,6.2c0,21.7,0.1,43.4-0.1,65c0,3.4-0.4,6.9-1.2,10.2c-1.8,7.4-5.9,13.2-12.9,16.5c-5.1,2.5-10.6,2.8-16.2,2
			c-8.8-1.2-14.5-6.1-17.3-14.6c-1.5-4.4-2-9-2-13.6c0-21.9,0-43.8,0-65.6c0-4-2.2-6.2-6.1-6.2c-6.4,0-12.7,0-19.1,0
			c-4,0-6,2.1-6,6.1c0,22.6,0,45.1,0,67.7c0,1.6,0.1,3.2,0.2,4.8c0.5,8.8,2.3,17.3,6.4,25.1c5.4,10.4,13.6,17.6,25,20.7
			c7.3,2,14.8,2.1,22.2,1c9.2-1.3,17.3-4.9,23.8-11.6C653,157.7,654.4,155.9,656,154z M465.7,135.5c-3,0-5.9,0-8.9,0
			c-0.1,0-0.2,0-0.2,0c-3.1,0.1-5.1,2.1-5.1,5.2c0,1.1,0.1,2.3,0.5,3.3c1.6,5.2,4.6,9.6,8.6,13.2c8.9,8.1,19.5,12.4,31.3,13.7
			c7.4,0.8,14.8,0.8,22.1,0c7.7-0.8,15.1-2.6,22-6.3c11-6,18.2-14.7,19.3-27.6c0.7-8.5-1-16.4-6.4-23.2c-4.4-5.6-10.2-9.2-16.6-12.1
			c-7-3.1-14.5-4.7-22-6.3c-6.3-1.3-12.6-2.8-18.4-5.6c-2.9-1.4-5.5-3-6.7-6.2c-1.9-5.2-1.1-12.9,6.1-16.4c6.8-3.3,13.8-3,20.7-0.3
			c5.2,2,8.9,6.2,13,9.7c1.2,1.1,2.5,1.7,4.1,1.7c5.4,0,10.8,0,16.2,0c3.4,0,5.6-2.3,5.4-5.7c-0.2-3.7-1.8-6.7-3.9-9.7
			c-6-8.6-14.5-13.6-24.2-16.8c-8.2-2.8-16.8-3.3-25.5-2.9c-10.3,0.5-19.9,3.3-28.2,9.5c-9.1,6.8-14.3,15.7-14.5,27.2
			c-0.1,6.7,1.3,13.1,5.1,18.8c3.8,5.8,9.4,9.5,15.5,12.4c6.1,2.9,12.6,4.4,19,6.1c6.4,1.7,12.8,3.6,19.1,5.6
			c2.9,0.9,5.7,2.4,7.8,4.7c4.9,5.5,3.4,14.9-3.3,18.6c-8.7,4.8-17.8,4.5-26.8,0.8c-5.1-2.1-8.9-6.1-12.9-9.8c-1-1-2-1.6-3.5-1.6
			C471.5,135.5,468.6,135.5,465.7,135.5z"/>
		<path class="st1" d="M360.6,26.4c38.3,0.1,69.2,31.1,69.1,69.4c-0.1,38.3-31.1,69.1-69.4,69.1c-38.2-0.1-69.2-31.2-69.1-69.4
			C291.4,57.3,322.4,26.3,360.6,26.4z M369.8,120.1c0-4.6,0-9.1,0-13.7c0-1.2,0.3-1.5,1.5-1.5c9,0,17.9,0,26.9,0
			c3.8,0,6.4-2.6,6.4-6.4c0-1.9-0.1-3.8,0-5.6c0.3-3.8-2.8-6.8-6.7-6.7c-8.8,0.1-17.7,0-26.5,0c-1.1,0-1.5-0.3-1.5-1.4
			c0.1-9.1,0-18.2,0-27.2c0-3-2.2-5.6-5.2-5.9c-2.5-0.2-4.9-0.2-7.4-0.2c-2.5,0.1-4.5,1.1-5.4,3.5c-0.5,1.1-0.6,2.5-0.6,3.7
			c-0.1,8.6,0,17.3,0,25.9c0,1.6,0,1.6-1.5,1.6c-8.9,0-17.8,0-26.6,0c-4,0-6.6,2.7-6.6,6.6c0,1.8,0,3.6,0,5.4c0,4.1,2.6,6.7,6.7,6.7
			c8.8,0,17.6,0,26.4,0c1.7,0,1.7,0,1.7,1.7c0,9.2,0.1,18.5,0.1,27.7c0,2.3,2.1,4.9,4.3,5.1c3,0.2,6,0.3,9,0
			c3.3-0.3,5.2-2.8,5.2-6.1C369.8,129,369.8,124.5,369.8,120.1z"/>
		<path class="st1" d="M233.6,96.5c-16.7,0-33.1,0-49.8,0c0.3-2.8,0.4-5.6,0.8-8.3c0.7-4.8,2.3-9.3,5.1-13.3c4.1-6,9.8-9.1,17-9.5
			c7.3-0.4,13.8,1.5,18.9,7c4,4.4,6.2,9.6,7.1,15.4C233.2,90.6,233.3,93.5,233.6,96.5z"/>
	</g>
</g>
<g id="Layer_4_xA0_Image_1_">
	<g class="st0">
		<path class="st1" d="M800.6,168c-17.5,0-35,0-52.5,0c0-15.4,0-30.7,0-46.1c0.1,0.9,0.3,1.7,0.4,2.6c0.5,5.2,1.4,10.4,3,15.4
			c1.9,6.2,3.8,12.4,5.7,18.5c0.1,0.4,0.4,0.9,0.8,1.1c2.6,1.5,5.5,2.2,8.6,2.3c0.7,0,0.9-0.2,0.9-0.9c0.2-3.4,0.4-6.8,0.9-10.1
			c0.7-5.2,1.8-10.2,4.5-14.8c0.4-0.6,0.7-1.4,1-2.1c0.6-1.6,0.9-3-0.6-4.5c-0.9-0.9-1.3-2.2-2.1-3.3c-0.2-0.4-0.8-0.8-1.1-0.7
			c-0.4,0-1.1,0.4-1.2,0.8c-2.8,6.5-5.9,12.9-6.7,20c0,0.2-0.5,0.6-0.8,0.6c-0.2,0-0.5-0.4-0.6-0.6c-0.1-0.7-0.1-1.4-0.2-2
			c-0.9-6.4-1.8-12.7-2.6-19.1c-0.6-4.6-0.8-9.3-0.1-13.9c1-6.3,2.2-12.6,3.5-18.9c1.6-8,3.3-16,4.1-24.2c0.1-1-0.2-1.4-1.1-1.6
			c-2.2-0.6-4.4-1.2-6.6-1.8c-2.3-0.6-2.3-0.6-2.9,1.7c-3.3,12.8-5.6,25.7-6.6,38.8c0,0.7-0.2,1.3-0.3,2c0-21.3,0-42.7,0-64.1
			c34.8,0,69.7,0,104.5,0c-1,0.2-2,0.5-3,0.7c-1.3,0.3-1.5,0.7-0.8,1.8c1.4,2.5,2.8,4.9,4.1,7.5c1.3,2.5,3,4.8,3.5,7.7
			c0.8,4.3,1.8,8.6,2.7,12.9c0.1,0,0.3,0,0.4,0c2.3-0.7,4.6-1.3,6.8-2.1c0.3-0.1,0.7-0.7,0.7-1c-0.2-2.1-0.2-4.2-0.8-6.1
			c-2.3-7.7-5.6-15-10.6-21.3c41.9,0,83.9,0,125.9,0c0,41.6,0,83.2,0,124.8c-59.7,0-119.4,0-179.1,0c0.2-0.1,0.5-0.3,0.7-0.4
			c7.4-1.7,12.7-6,16.8-12.2c3.6-5.5,5.8-11.7,7.4-18.1c2.2-8.8,3.2-17.8,3.6-26.8c0.2-4.4,0.3-8.7,0.4-13.1c0-0.8,0.2-1.1,1.1-1.2
			c2.5-0.2,4.9-0.5,7.4-0.8c3.8-0.4,7.6-0.8,11.4-1.3c0.4,0,1-0.4,1-0.7c0.7-2.8,0.7-5.6,0.6-8.5c-3.9,0.5-7.6,1.1-11.4,1.5
			c-3,0.4-6,0.7-9,1.1c-0.7,0.1-1.1-0.2-1.2-0.9c-0.2-1.7-0.6-3.3-0.7-5c-0.5-6-0.9-12-1.3-18.1c0-0.8-0.2-1.1-1.1-1.2
			c-2.1-0.2-4.1-0.5-6.2-0.8c-0.8-0.1-1.5-0.2-2.4-0.3c0,0.7,0,1.3,0,1.9c0.5,7.9,1,15.9,1.6,23.8c0.1,1.5,0.1,1.5-1.4,1.5
			c-12.1,0-24.1,0-36.2,0c-0.4,0-0.9,0-1.2,0c-0.1,0.2-0.2,0.3-0.2,0.4c0.3,3,0.5,6.1,0.8,9.1c0,0.3,0.6,0.6,1,0.6
			c2.6,0,5.3,0,7.9-0.1c9.5-0.4,19-0.7,28.5-1.1c0.9,0,1.3,0.2,1.3,1.2c0,9.1-0.1,18.2-1.4,27.2c-1,7.1-2.6,14.1-6,20.5
			c-3.1,5.7-7.4,10.1-13.4,12.5c-2.1,0.8-4.4,1.3-6.7,1.9c-0.4,0.1-0.8,0.5-1,0.9c-0.1,0.3,0.2,0.7,0.5,1c0.3,0.3,0.7,0.6,1,0.8
			C796.6,164.8,798.6,166.4,800.6,168z M876.5,90.6c3.2,3.7,6.2,7.1,9.3,10.4c0.2,0.2,0.9,0.3,1.2,0.2c2.6-1,5.2-2,7.8-3
			c6-2.3,11.9-4.8,18.2-6.3c8.5-2,17.1-3.5,25.8-3.8c5.8-0.2,11.6,0.1,17.2,1.5c7.6,2,12.5,6.6,13.5,14.6c1.9,14.9-3,27.2-15.2,36.2
			c-9.1,6.7-19.5,10.3-30.7,12.1c-3.9,0.6-7.7,1.4-11.5,2.2c-0.2,0-0.5,0.4-0.5,0.6c-0.2,0.7,0.2,1.2,0.9,1.6
			c2.3,1.7,4.6,3.4,6.8,5.3c0.6,0.5,1.1,0.8,1.9,0.8c6.5-0.3,12.8-1.4,19-3.4c13-4.3,23.9-11.5,32.2-22.5c5-6.5,8.1-13.6,8.5-21.9
			c0.3-7.1-1.1-13.9-4.1-20.4c-3-6.6-7.7-11.1-14.7-13.3c-6-1.9-12-2.9-18.2-3.2c-3.7-0.2-7.5-0.3-11.2,0.4c-3,0.6-6,1.1-9.1,1.6
			c-5.8,0.9-11.6,2-17.2,4.2c-7.2,2.8-14.6,4.7-22.4,5.1C881.6,89.9,879.2,90.3,876.5,90.6z M842.3,76.5c2.5-0.6,4.8-1.2,7.2-1.8
			c1.6-0.4,1.7-0.4,1.3-2.1c-1.4-7.1-3.9-13.8-7.1-20.3c-0.9-1.9-2.2-3.7-3.4-5.5c-0.3-0.5-1.2-1-1.7-0.9c-1.9,0.2-3.7,0.7-5.5,1
			c-0.8,0.1-1,0.5-0.8,1.3c0.6,3.5,2,6.6,3.6,9.7c2.3,4.5,4.6,8.9,5.7,13.9C841.8,73.4,842,74.9,842.3,76.5z"/>
	</g>
	<path class="st1" d="M347.4,172.8c-3.9-1-7.9-1.7-11.7-3.1c-27.5-10-45-29.2-51.5-57.8c-8.4-37.2,12.6-76.1,48.3-89.2
		c27.2-10,52.9-6.3,76,11.3c15.1,11.4,24.5,26.7,28.4,45.2c7.7,36.3-10.5,72.3-44.2,87.6c-5.8,2.7-11.9,4.5-18.3,5.7
		c-0.2,0-0.4,0.1-0.7,0.2C365,172.8,356.2,172.8,347.4,172.8z M360.6,26.4c-38.2-0.1-69.2,30.9-69.3,69.1
		c-0.1,38.2,30.9,69.3,69.1,69.4c38.3,0.1,69.3-30.8,69.4-69.1C429.9,57.5,398.9,26.5,360.6,26.4z"/>
	<path class="st1" d="M103.1,100.7c-0.6,0-1.1,0-1.5,0c-8.4,0-16.8,0-25.2,0c-4,0-6.2-2.2-6.2-6.2c0-4.1,0-8.2,0-12.4
		c0-3.8,2.2-6,6.1-6c17.7,0,35.4,0,53.1,0c3.8,0,6.1,2.2,6.1,6c0,10.4,0.2,20.9-0.3,31.3c-0.8,14.5-5.6,27.6-15.6,38.4
		c-7.1,7.7-15.8,12.8-25.6,16c-7.7,2.5-15.7,3.7-23.8,3.9c-8.6,0.2-17.1-0.5-25.4-2.7c-16.3-4.3-28.6-13.8-36.4-28.8
		c-3.2-6.2-5.2-12.9-6.4-19.8c-1.3-7.3-1.4-14.7-1.5-22.1c0-10.1,0-20.2,0.1-30.4c0.1-9.4,0.9-18.7,4.1-27.6
		c6.7-19,19.9-31.2,39.1-36.8C55.9,0.1,68.4-0.2,81,1.4c13.2,1.7,25.1,6.6,35.4,14.9c8.1,6.5,13.8,14.7,16.6,24.8
		c0.6,2.2,0.9,4.5,1.1,6.7c0.2,3.6-1.8,5.5-5.4,5.5c-3.3,0-6.6,0-9.8,0c-4.3,0-8.6,0-13,0c-3.3,0-4.7-0.9-5.9-4
		c-1.3-3.3-2.9-6.4-5.1-9.2c-5.6-7.1-13-10.9-22-11.8c-6.6-0.6-13.1-0.3-19.4,1.9C43.6,34,37.8,41.2,35.2,51.2
		c-1.4,5.5-1.8,11.2-1.8,16.9c-0.1,6.4-0.2,12.8-0.2,19.2c0.1,7.8,0.2,15.6,0.5,23.4c0.2,5.1,1.2,10,3.1,14.7
		c3.7,9.2,10.5,15,20,17.4c9,2.3,18,2,26.7-1.5c10.7-4.2,16.8-12.4,18.8-23.6C103.3,112.1,103.2,106.5,103.1,100.7z"/>
	<path class="st1" d="M184,116.8c0.1,1.9,0.2,3.7,0.3,5.4c0.7,6.8,2.6,13.1,6.8,18.6c4,5.3,9.3,8.1,16,8.5
		c8.8,0.5,15.9-2.7,21.5-9.5c0.9-1.1,1.8-2.2,2.7-3.3c1-1.3,2.4-1.9,4-1.9c7.3,0,14.6-0.1,21.8,0c3.1,0,4.8,2.3,4.5,5.4
		c-0.3,2.9-1.5,5.5-3,8c-4.8,7.6-11.7,12.8-19.5,16.9c-9,4.7-18.6,6.6-28.6,6.8c-7.9,0.1-15.6-0.7-23-3.4
		c-14.9-5.4-24.7-15.8-30-30.6c-2.8-7.8-3.9-15.9-4.3-24.1c-0.3-6.1-0.3-12.2,0.4-18.3c1.3-11.5,4.6-22.2,11.5-31.6
		c8-10.9,18.8-17.3,32-19.5c9.9-1.6,19.8-1.3,29.5,1.3c13.7,3.7,23.5,12.2,30.2,24.5c4.6,8.6,6.9,17.9,7.6,27.5
		c0.3,4.6,0.3,9.3,0.3,13.9c0,2.9-2.3,5.2-5.1,5.3c-0.4,0-0.8,0-1.2,0c-24.2,0-48.3,0-72.5,0C185.3,116.8,184.8,116.8,184,116.8z
		 M233.6,96.5c-0.3-3-0.4-5.9-0.9-8.7c-0.9-5.8-3.1-11.1-7.1-15.4c-5.1-5.5-11.5-7.4-18.9-7c-7.2,0.4-12.9,3.6-17,9.5
		c-2.8,4-4.4,8.5-5.1,13.3c-0.4,2.7-0.5,5.4-0.8,8.3C200.5,96.5,216.9,96.5,233.6,96.5z"/>
	<path class="st1" d="M656,154c-1.6,1.9-3,3.6-4.6,5.2c-6.6,6.7-14.7,10.3-23.8,11.6c-7.5,1.1-14.9,1-22.2-1
		c-11.4-3.2-19.5-10.4-25-20.7c-4.1-7.9-5.8-16.4-6.4-25.1c-0.1-1.6-0.2-3.2-0.2-4.8c0-22.6,0-45.1,0-67.7c0-4,2-6.1,6-6.1
		c6.4,0,12.7,0,19.1,0c3.9,0,6.1,2.2,6.1,6.2c0,21.9,0,43.8,0,65.6c0,4.6,0.5,9.2,2,13.6c2.8,8.4,8.5,13.3,17.3,14.6
		c5.6,0.8,11,0.5,16.2-2c7-3.4,11.1-9.2,12.9-16.5c0.8-3.3,1.2-6.8,1.2-10.2c0.1-21.7,0.1-43.4,0.1-65c0-4.2,2-6.2,6.2-6.2
		c6.2,0,12.5,0,18.7,0c4.2,0,6.1,1.9,6.1,6.1c0,37.2,0,74.4,0,111.6c0,4-2,6-6.1,6c-6,0-12,0-18,0c-3,0-5.3-1.9-5.5-4.9
		c-0.2-2.9-0.1-5.8-0.1-8.6C656,155.1,656,154.7,656,154z"/>
	<path class="st1" d="M465.7,135.5c2.9,0,5.8,0,8.8,0c1.4,0,2.4,0.6,3.5,1.6c4,3.7,7.7,7.7,12.9,9.8c9,3.7,18.1,4,26.8-0.8
		c6.7-3.7,8.3-13.2,3.3-18.6c-2.1-2.3-4.9-3.8-7.8-4.7c-6.3-2-12.7-3.9-19.1-5.6c-6.5-1.7-13-3.2-19-6.1
		c-6.2-2.9-11.7-6.6-15.5-12.4c-3.8-5.7-5.2-12.1-5.1-18.8c0.3-11.5,5.4-20.4,14.5-27.2c8.4-6.2,17.9-8.9,28.2-9.5
		c8.6-0.5,17.2,0.1,25.5,2.9c9.6,3.3,18.2,8.2,24.2,16.8c2,2.9,3.7,6,3.9,9.7c0.2,3.4-2,5.7-5.4,5.7c-5.4,0-10.8,0-16.2,0
		c-1.6,0-2.8-0.6-4.1-1.7c-4.1-3.5-7.8-7.7-13-9.7c-6.9-2.6-13.9-3-20.7,0.3c-7.2,3.5-8,11.2-6.1,16.4c1.2,3.2,3.8,4.8,6.7,6.2
		c5.9,2.8,12.1,4.2,18.4,5.6c7.5,1.6,14.9,3.2,22,6.3c6.4,2.8,12.2,6.5,16.6,12.1c5.4,6.8,7.1,14.7,6.4,23.2
		c-1.1,12.9-8.3,21.6-19.3,27.6c-6.8,3.8-14.3,5.5-22,6.3c-7.4,0.8-14.8,0.8-22.1,0c-11.8-1.3-22.4-5.6-31.3-13.7
		c-4-3.6-7-8-8.6-13.2c-0.3-1.1-0.4-2.2-0.5-3.3c0-3.1,2-5.1,5.1-5.2c0.1,0,0.2,0,0.2,0C459.8,135.5,462.7,135.5,465.7,135.5z"/>
	<path class="st1" d="M369.8,120.1c0,4.4,0,8.9,0,13.3c0,3.3-1.9,5.8-5.2,6.1c-3,0.3-6,0.2-9,0c-2.3-0.2-4.3-2.8-4.3-5.1
		c-0.1-9.2-0.1-18.5-0.1-27.7c0-1.7,0-1.7-1.7-1.7c-8.8,0-17.6,0-26.4,0c-4.2,0-6.7-2.6-6.7-6.7c0-1.8,0-3.6,0-5.4
		c0-3.9,2.7-6.6,6.6-6.6c8.9,0,17.8,0,26.6,0c1.5,0,1.5,0,1.5-1.6c0-8.6,0-17.3,0-25.9c0-1.2,0.2-2.6,0.6-3.7
		c0.9-2.4,2.9-3.4,5.4-3.5c2.5-0.1,5,0,7.4,0.2c3,0.3,5.2,2.8,5.2,5.9c0,9.1,0,18.2,0,27.2c0,1.2,0.3,1.4,1.5,1.4
		c8.8,0,17.7,0,26.5,0c4,0,7,2.9,6.7,6.7c-0.1,1.9,0,3.8,0,5.6c0,3.8-2.5,6.4-6.4,6.4c-9,0-17.9,0-26.9,0c-1.2,0-1.5,0.3-1.5,1.5
		C369.9,111,369.8,115.5,369.8,120.1z"/>
	<path class="st1" d="M800.6,168c-2-1.6-4-3.2-5.9-4.8c-0.3-0.3-0.7-0.5-1-0.8c-0.2-0.3-0.6-0.8-0.5-1c0.1-0.4,0.6-0.7,1-0.9
		c2.2-0.7,4.5-1.1,6.7-1.9c6-2.4,10.3-6.8,13.4-12.5c3.5-6.4,5-13.3,6-20.5c1.3-9,1.4-18.1,1.4-27.2c0-1.1-0.4-1.3-1.3-1.2
		c-9.5,0.4-19,0.8-28.5,1.1c-2.6,0.1-5.3,0.1-7.9,0.1c-0.3,0-1-0.4-1-0.6c-0.3-3-0.6-6-0.8-9.1c0-0.1,0.1-0.1,0.2-0.4
		c0.4,0,0.8,0,1.2,0c12.1,0,24.1,0,36.2,0c1.5,0,1.5,0,1.4-1.5c-0.5-7.9-1.1-15.9-1.6-23.8c0-0.6,0-1.2,0-1.9
		c0.8,0.1,1.6,0.2,2.4,0.3c2.1,0.3,4.1,0.6,6.2,0.8c0.8,0.1,1,0.4,1.1,1.2c0.4,6,0.8,12,1.3,18.1c0.1,1.7,0.5,3.3,0.7,5
		c0.1,0.8,0.5,1,1.2,0.9c3-0.4,6-0.7,9-1.1c3.8-0.5,7.5-1,11.4-1.5c0.1,2.9,0.2,5.8-0.6,8.5c-0.1,0.3-0.7,0.7-1,0.7
		c-3.8,0.5-7.6,0.9-11.4,1.3c-2.5,0.3-4.9,0.6-7.4,0.8c-0.8,0.1-1,0.4-1.1,1.2c-0.1,4.4-0.2,8.7-0.4,13.1c-0.4,9-1.4,18-3.6,26.8
		c-1.6,6.4-3.8,12.5-7.4,18.1c-4.1,6.2-9.4,10.6-16.8,12.2c-0.3,0.1-0.5,0.3-0.7,0.4C801.7,168,801.1,168,800.6,168z"/>
	<path class="st1" d="M748.1,107.3c0.1-0.7,0.3-1.3,0.3-2c0.9-13.2,3.3-26.1,6.6-38.8c0.6-2.3,0.6-2.4,2.9-1.7
		c2.2,0.6,4.4,1.2,6.6,1.8c0.9,0.2,1.2,0.6,1.1,1.6c-0.8,8.2-2.5,16.2-4.1,24.2c-1.3,6.3-2.5,12.5-3.5,18.9
		c-0.7,4.6-0.5,9.3,0.1,13.9c0.8,6.4,1.7,12.8,2.6,19.1c0.1,0.7,0.1,1.4,0.2,2c0.1,0.3,0.4,0.7,0.6,0.6c0.3-0.1,0.7-0.4,0.8-0.6
		c0.8-7.2,3.9-13.5,6.7-20c0.2-0.4,0.8-0.8,1.2-0.8c0.4,0,0.9,0.4,1.1,0.7c0.7,1.1,1.2,2.4,2.1,3.3c1.5,1.4,1.2,2.9,0.6,4.5
		c-0.3,0.7-0.6,1.4-1,2.1c-2.8,4.5-3.8,9.6-4.5,14.8c-0.5,3.4-0.6,6.8-0.9,10.1c0,0.7-0.3,0.9-0.9,0.9c-3.1-0.1-5.9-0.8-8.6-2.3
		c-0.4-0.2-0.6-0.7-0.8-1.1c-1.9-6.2-3.8-12.4-5.7-18.5c-1.5-5-2.5-10.2-3-15.4c-0.1-0.9-0.3-1.7-0.4-2.6
		C748.1,117,748.1,112.2,748.1,107.3z"/>
	<path class="st1" d="M855.5,43.2c5,6.4,8.3,13.6,10.6,21.3c0.6,2,0.6,4.1,0.8,6.1c0,0.3-0.4,0.9-0.7,1c-2.3,0.7-4.6,1.4-6.8,2.1
		c-0.1,0-0.2,0-0.4,0c-0.9-4.3-2-8.6-2.7-12.9c-0.5-2.9-2.2-5.2-3.5-7.7c-1.3-2.5-2.7-5-4.1-7.5c-0.6-1.1-0.4-1.5,0.8-1.8
		c1-0.2,2-0.5,3-0.7C853.6,43.2,854.5,43.2,855.5,43.2z"/>
	<path class="st1" d="M876.5,90.6c2.7-0.3,5.1-0.7,7.5-0.8c7.8-0.4,15.2-2.3,22.4-5.1c5.6-2.2,11.3-3.3,17.2-4.2
		c3-0.5,6.1-1,9.1-1.6c3.7-0.8,7.5-0.7,11.2-0.4c6.2,0.4,12.3,1.4,18.2,3.2c7,2.2,11.7,6.7,14.7,13.3c3,6.5,4.4,13.3,4.1,20.4
		c-0.3,8.2-3.5,15.4-8.5,21.9c-8.4,10.9-19.2,18.2-32.2,22.5c-6.2,2-12.5,3.1-19,3.4c-0.8,0-1.3-0.3-1.9-0.8
		c-2.2-1.8-4.5-3.6-6.8-5.3c-0.6-0.5-1-0.9-0.9-1.6c0-0.2,0.3-0.6,0.5-0.6c3.8-0.8,7.7-1.6,11.5-2.2c11.1-1.8,21.6-5.4,30.7-12.1
		c12.2-8.9,17.1-21.2,15.2-36.2c-1-8-5.9-12.6-13.5-14.6c-5.7-1.5-11.4-1.8-17.2-1.5c-8.7,0.3-17.3,1.8-25.8,3.8
		c-6.3,1.4-12.2,4-18.2,6.3c-2.6,1-5.2,2-7.8,3c-0.4,0.1-1,0.1-1.2-0.2C882.7,97.7,879.7,94.3,876.5,90.6z"/>
	<path class="st1" d="M842.3,76.5c-0.3-1.6-0.5-3.1-0.8-4.7c-1.1-5-3.4-9.4-5.7-13.9c-1.6-3.1-3-6.3-3.6-9.7c-0.1-0.8,0-1.2,0.8-1.3
		c1.8-0.3,3.7-0.8,5.5-1c0.6-0.1,1.4,0.4,1.7,0.9c1.2,1.8,2.4,3.6,3.4,5.5c3.2,6.5,5.6,13.2,7.1,20.3c0.3,1.7,0.3,1.7-1.3,2.1
		C847.1,75.3,844.7,75.9,842.3,76.5z"/>
</g>
</svg>
